<svg xmlns="http://www.w3.org/2000/svg" viewBox="0 0 1280 720" data-pptx-page-role="content" font-family="SimSun, Georgia, serif">
  <rect id="paper-background" data-pptx-role="background" x="0" y="0" width="1280" height="720" fill="#F5F0E6"/>
  <g id="page-title" data-pptx-bounds="46 26 1186 74">
    <text x="46" y="72" font-family="DengXian, Impact, sans-serif" font-size="38" font-weight="bold" fill="#111111">Δ-IRIS：复现必须分层，“跑通”不等于论文性能</text>
    <path d="M49 88 C328 79 629 96 1032 84" fill="none" stroke="#D94841" stroke-width="5" stroke-linecap="round"/>
  </g>
  <g id="validation-evidence" data-pptx-bounds="48 118 914 516">
    <path d="M54 122 C287 112 626 119 953 126 C961 278 959 473 951 626 C648 637 345 634 54 624 C45 470 46 282 54 122 Z" fill="#FFFFFF" stroke="#111111" stroke-width="3" stroke-linecap="round" stroke-linejoin="round"/>
    <image href="../images/validation_matrix.png" x="70" y="140" width="876" height="456" preserveAspectRatio="xMidYMid meet"/>
    <text x="72" y="620" font-family="DengXian, Impact, sans-serif" font-size="18" fill="#625E57">四层复现成功标准｜环境、工程、预训练推理通过；论文性能层仍未完成</text>
  </g>
  <g id="boundary-note" data-pptx-bounds="976 116 254 528">
    <text x="1005" y="158" font-family="DengXian, Impact, sans-serif" font-size="24" font-weight="bold" fill="#D94841">边界必须写清</text>
    <path d="M1010 182 C1096 166 1178 185 1207 220 C1219 321 1210 442 1189 524 C1122 550 1051 533 1014 501 C994 403 993 282 1010 182 Z" fill="#E4DED2" fill-opacity="0.62" stroke="#D94841" stroke-width="4" stroke-linecap="round" stroke-linejoin="round"/>
    <text x="1032" y="235" font-size="24" font-weight="bold" fill="#2F7D5C">✓ 环境层</text>
    <text x="1032" y="278" font-size="24" font-weight="bold" fill="#2F7D5C">✓ 工程层</text>
    <text x="1032" y="321" font-size="24" font-weight="bold" fill="#2F7D5C">✓ 推理层</text>
    <text x="1032" y="376" font-size="24" font-weight="bold" fill="#D94841">○ 论文性能层</text>
    <path d="M1028 391 C1090 384 1153 397 1190 388" fill="none" stroke="#D94841" stroke-width="5" stroke-linecap="round"/>
    <text x="1032" y="435" font-size="24" fill="#191919">epoch 27</text>
    <text x="1032" y="472" font-size="24" fill="#191919">360,006 steps</text>
    <text x="1032" y="509" font-size="24" fill="#191919">2,032 seg.</text>
    <text x="1032" y="546" font-family="DengXian, Impact, sans-serif" font-size="32" font-weight="bold" fill="#D94841">7.20% / 5M</text>
    <text x="1000" y="580" font-size="18" fill="#625E57">我的判断：<tspan x="1000" dy="24">checkpoint 证明推理链，</tspan><tspan x="1000" dy="24">不能替代从头训练。</tspan></text>
  </g>
  <text id="page-number" data-pptx-role="page-number" x="1230" y="688" text-anchor="end" font-family="DengXian, Impact, sans-serif" font-size="18" fill="#625E57">06</text>
</svg>
