<svg xmlns="http://www.w3.org/2000/svg" viewBox="0 0 1280 720" data-pptx-page-role="content" font-family="SimSun, Georgia, serif">
  <rect id="paper-background" data-pptx-role="background" x="0" y="0" width="1280" height="720" fill="#F5F0E6"/>
  <g id="page-title" data-pptx-bounds="46 26 1186 74">
    <text x="46" y="72" font-family="DengXian, Impact, sans-serif" font-size="38" font-weight="bold" fill="#111111">可复现工程，把一次运行变成可追溯证据</text>
    <path d="M49 88 C255 79 503 94 790 84" fill="none" stroke="#2D5B8A" stroke-width="5" stroke-linecap="round"/>
  </g>
  <g id="evidence-chain" data-pptx-bounds="48 128 1184 218">
    <text x="52" y="166" font-family="DengXian, Impact, sans-serif" font-size="24" font-weight="bold" fill="#2D5B8A">七步证据链</text>
    <path d="M92 248 C246 225 420 251 583 232 C749 213 934 245 1179 224" fill="none" stroke="#111111" stroke-width="5" stroke-linecap="round" stroke-linejoin="round"/>
    <path d="M1154 211 L1182 224 L1158 242" fill="none" stroke="#111111" stroke-width="5" stroke-linecap="round" stroke-linejoin="round"/>
    <circle cx="110" cy="245" r="30" fill="#E4DED2" stroke="#2D5B8A" stroke-width="4"/>
    <circle cx="280" cy="237" r="30" fill="#E4DED2" stroke="#2D5B8A" stroke-width="4"/>
    <circle cx="450" cy="239" r="30" fill="#E4DED2" stroke="#2D5B8A" stroke-width="4"/>
    <circle cx="620" cy="230" r="30" fill="#E4DED2" stroke="#D94841" stroke-width="4"/>
    <circle cx="790" cy="228" r="30" fill="#E4DED2" stroke="#D94841" stroke-width="4"/>
    <circle cx="960" cy="232" r="30" fill="#E4DED2" stroke="#2F7D5C" stroke-width="4"/>
    <circle cx="1130" cy="228" r="34" fill="#E4DED2" stroke="#2F7D5C" stroke-width="5"/>
    <text x="110" y="252" text-anchor="middle" font-family="DengXian, Consolas, monospace" font-size="24" font-weight="bold" fill="#2D5B8A">01</text>
    <text x="280" y="244" text-anchor="middle" font-family="DengXian, Consolas, monospace" font-size="24" font-weight="bold" fill="#2D5B8A">02</text>
    <text x="450" y="246" text-anchor="middle" font-family="DengXian, Consolas, monospace" font-size="24" font-weight="bold" fill="#2D5B8A">03</text>
    <text x="620" y="237" text-anchor="middle" font-family="DengXian, Consolas, monospace" font-size="24" font-weight="bold" fill="#D94841">04</text>
    <text x="790" y="235" text-anchor="middle" font-family="DengXian, Consolas, monospace" font-size="24" font-weight="bold" fill="#D94841">05</text>
    <text x="960" y="239" text-anchor="middle" font-family="DengXian, Consolas, monospace" font-size="24" font-weight="bold" fill="#2F7D5C">06</text>
    <text x="1130" y="235" text-anchor="middle" font-family="DengXian, Consolas, monospace" font-size="24" font-weight="bold" fill="#2F7D5C">07</text>
    <text x="110" y="304" text-anchor="middle" font-size="18" fill="#191919">固定提交</text>
    <text x="280" y="296" text-anchor="middle" font-size="18" fill="#191919">隔离环境</text>
    <text x="450" y="298" text-anchor="middle" font-size="18" fill="#191919">CUDA / EGL</text>
    <text x="620" y="289" text-anchor="middle" font-size="18" fill="#191919">最小 smoke</text>
    <text x="790" y="287" text-anchor="middle" font-size="18" fill="#191919">严格加载</text>
    <text x="960" y="291" text-anchor="middle" font-size="18" fill="#191919">有界评估</text>
    <text x="1130" y="289" text-anchor="middle" font-size="18" fill="#191919">证据交付</text>
  </g>
  <g id="failure-fixes" data-pptx-bounds="48 386 1184 262">
    <text x="52" y="422" font-family="DengXian, Impact, sans-serif" font-size="24" font-weight="bold" fill="#D94841">典型问题 → 修复 → 证据</text>
    <path d="M57 443 C224 429 384 437 423 455 C431 507 426 566 412 615 C286 627 171 620 57 606 C46 555 47 496 57 443 Z" fill="#E4DED2" fill-opacity="0.60" stroke="#111111" stroke-width="3" stroke-linecap="round" stroke-linejoin="round"/>
    <text x="82" y="486" font-family="DengXian, Impact, sans-serif" font-size="24" font-weight="bold" fill="#111111">版本漂移</text>
    <text x="82" y="525" font-size="24" fill="#191919">固定 commit / 依赖</text>
    <text x="82" y="564" font-size="24" fill="#2F7D5C">→ 哈希 + 环境清单</text>
    <path d="M451 443 C619 428 782 438 817 456 C826 508 821 566 806 615 C679 628 566 620 451 606 C440 555 441 496 451 443 Z" fill="#F5F0E6" stroke="#111111" stroke-width="3" stroke-linecap="round" stroke-linejoin="round"/>
    <text x="476" y="486" font-family="DengXian, Impact, sans-serif" font-size="24" font-weight="bold" fill="#111111">无显示器运行</text>
    <text x="476" y="525" font-size="24" fill="#191919">MuJoCo EGL 探针</text>
    <text x="476" y="564" font-size="24" fill="#2F7D5C">→ 日志 + 结果图</text>
    <path d="M845 443 C1008 430 1170 439 1216 456 C1224 509 1219 567 1204 615 C1080 627 957 620 845 606 C834 555 835 496 845 443 Z" fill="#E4DED2" fill-opacity="0.60" stroke="#111111" stroke-width="3" stroke-linecap="round" stroke-linejoin="round"/>
    <text x="870" y="486" font-family="DengXian, Impact, sans-serif" font-size="24" font-weight="bold" fill="#111111">评估语义混淆</text>
    <text x="870" y="525" font-size="24" fill="#191919">区分 smoke / 权重 / 训练</text>
    <text x="870" y="564" font-size="24" fill="#2F7D5C">→ 口径 + 边界声明</text>
    <text x="52" y="635" font-size="18" fill="#625E57">每个结论都能指向命令、日志、指标或落盘产物。</text>
  </g>
  <text id="page-number" data-pptx-role="page-number" x="1230" y="688" text-anchor="end" font-family="DengXian, Impact, sans-serif" font-size="18" fill="#625E57">10</text>
</svg>
